<svg width="41" height="41" viewBox="0 0 41 41" fill="none" xmlns="http://www.w3.org/2000/svg">
<g filter="url(#filter0_d_1_11289)">
<path fill-rule="evenodd" clip-rule="evenodd" d="M7.25031 1.38187C7.25031 1.17097 7.42854 1 7.6484 1H36.3115C36.5314 1 36.7096 1.17097 36.7096 1.38187V29.0039C36.7096 29.2148 36.5314 29.3858 36.3115 29.3858C36.0916 29.3858 35.9134 29.2148 35.9134 29.0039V1.76374H7.6484C7.42854 1.76374 7.25031 1.59277 7.25031 1.38187Z" fill="white" stroke="white" stroke-width="0.5" stroke-linecap="round" stroke-linejoin="round"/>
<path d="M7.6681 29.5623L7.7931 29.5623L7.7931 29.4373L7.79309 5.67856L9.41897 7.30443C9.62202 7.50749 9.95124 7.50749 10.1543 7.30443C10.3574 7.10138 10.3574 6.77216 10.1543 6.5691L7.6408 4.0556C7.43775 3.85255 7.10853 3.85255 6.90547 4.0556L4.39198 6.5691C4.18892 6.77216 4.18892 7.10138 4.39198 7.30443C4.59503 7.50749 4.92425 7.50749 5.12731 7.30443L6.75318 5.67856L6.75318 29.4373L6.75318 29.5623L6.87818 29.5623L7.6681 29.5623Z" fill="white" stroke="white" stroke-width="0.25"/>
<path d="M6.7522 29.8314V29.9564H6.8772L30.7603 29.9564L29.1262 31.5821C28.922 31.7852 28.922 32.1147 29.1262 32.3179C29.33 32.5206 29.6602 32.5206 29.864 32.3179L32.3906 29.8044C32.5947 29.6013 32.5947 29.2717 32.3906 29.0686L29.864 26.5551C29.6602 26.3523 29.33 26.3523 29.1262 26.5551C28.922 26.7582 28.922 27.0878 29.1262 27.2909L30.7603 28.9165L6.8772 28.9165H6.7522V29.0415L6.7522 29.8314Z" fill="white" stroke="white" stroke-width="0.25"/>
<path fill-rule="evenodd" clip-rule="evenodd" d="M18.1624 1.11568C18.3167 1.26992 18.3167 1.51999 18.1624 1.67423L13.423 6.41373C13.2687 6.56797 13.0186 6.56797 12.8644 6.41373C12.7102 6.25949 12.7102 6.00941 12.8644 5.85517L17.6039 1.11568C17.7581 0.96144 18.0082 0.96144 18.1624 1.11568Z" fill="white" stroke="white" stroke-width="0.5" stroke-linecap="round" stroke-linejoin="round"/>
<path fill-rule="evenodd" clip-rule="evenodd" d="M36.4623 19.9423C36.6165 20.0966 36.6165 20.3467 36.4623 20.5009L32.1177 24.8454C31.9635 24.9997 31.7134 24.9997 31.5592 24.8454C31.4049 24.6912 31.4049 24.4411 31.5592 24.2869L35.9037 19.9423C36.0579 19.7881 36.308 19.7881 36.4623 19.9423Z" fill="white" stroke="white" stroke-width="0.5" stroke-linecap="round" stroke-linejoin="round"/>
<path fill-rule="evenodd" clip-rule="evenodd" d="M24.0851 1.11391C24.2403 1.26716 24.2419 1.51723 24.0886 1.67245L13.8197 12.073C13.6665 12.2282 13.4164 12.2298 13.2612 12.0766C13.106 11.9233 13.1044 11.6732 13.2576 11.518L23.5265 1.11746C23.6798 0.962245 23.9299 0.960652 24.0851 1.11391Z" fill="white" stroke="white" stroke-width="0.5" stroke-linecap="round" stroke-linejoin="round"/>
<path fill-rule="evenodd" clip-rule="evenodd" d="M36.5938 13.3591C36.7481 13.5134 36.7481 13.7635 36.5938 13.9177L26.5882 23.9233C26.434 24.0775 26.1839 24.0775 26.0297 23.9233C25.8754 23.7691 25.8754 23.519 26.0297 23.3647L36.0353 13.3591C36.1895 13.2049 36.4396 13.2049 36.5938 13.3591Z" fill="white" stroke="white" stroke-width="0.5" stroke-linecap="round" stroke-linejoin="round"/>
<path fill-rule="evenodd" clip-rule="evenodd" d="M30.4084 1.24959C30.5614 1.40507 30.5594 1.65514 30.4039 1.80813L13.9474 18.0014C13.7919 18.1544 13.5418 18.1524 13.3888 17.9969C13.2358 17.8414 13.2379 17.5913 13.3933 17.4384L29.8499 1.24509C30.0054 1.0921 30.2554 1.09412 30.4084 1.24959Z" fill="white" stroke="white" stroke-width="0.5" stroke-linecap="round" stroke-linejoin="round"/>
<path fill-rule="evenodd" clip-rule="evenodd" d="M36.5939 7.17177C36.7482 7.32601 36.7482 7.57609 36.5939 7.73033L20.0057 24.3185C19.8515 24.4728 19.6014 24.4728 19.4472 24.3185C19.2929 24.1643 19.2929 23.9142 19.4472 23.76L36.0354 7.17177C36.1896 7.01753 36.4397 7.01753 36.5939 7.17177Z" fill="white" stroke="white" stroke-width="0.5" stroke-linecap="round" stroke-linejoin="round"/>
<path fill-rule="evenodd" clip-rule="evenodd" d="M36.3306 1.24733C36.4849 1.40157 36.4849 1.65165 36.3306 1.80589L13.6864 24.4501C13.5321 24.6044 13.2821 24.6044 13.1278 24.4501C12.9736 24.2959 12.9736 24.0458 13.1278 23.8916L35.7721 1.24733C35.9263 1.09309 36.1764 1.09309 36.3306 1.24733Z" fill="white" stroke="white" stroke-width="0.5" stroke-linecap="round" stroke-linejoin="round"/>
</g>
<defs>
<filter id="filter0_d_1_11289" x="0.114685" y="0.75" width="40.8449" height="39.8449" filterUnits="userSpaceOnUse" color-interpolation-filters="sRGB">
<feFlood flood-opacity="0" result="BackgroundImageFix"/>
<feColorMatrix in="SourceAlpha" type="matrix" values="0 0 0 0 0 0 0 0 0 0 0 0 0 0 0 0 0 0 127 0" result="hardAlpha"/>
<feOffset dy="4"/>
<feGaussianBlur stdDeviation="2"/>
<feComposite in2="hardAlpha" operator="out"/>
<feColorMatrix type="matrix" values="0 0 0 0 0 0 0 0 0 0 0 0 0 0 0 0 0 0 0.25 0"/>
<feBlend mode="normal" in2="BackgroundImageFix" result="effect1_dropShadow_1_11289"/>
<feBlend mode="normal" in="SourceGraphic" in2="effect1_dropShadow_1_11289" result="shape"/>
</filter>
</defs>
</svg>
